<svg width="14" height="14" viewBox="0 0 14 14" fill="none" xmlns="http://www.w3.org/2000/svg">
<path d="M0.291834 0.292017C0.384725 0.198891 0.495076 0.125005 0.616567 0.0745916C0.738057 0.0241787 0.868299 -0.00177002 0.999834 -0.00177002C1.13137 -0.00177002 1.26161 0.0241787 1.3831 0.0745916C1.50459 0.125005 1.61494 0.198891 1.70783 0.292017L6.99983 5.58602L12.2918 0.292017C12.3848 0.199041 12.4952 0.125288 12.6167 0.0749702C12.7381 0.0246521 12.8683 -0.00124645 12.9998 -0.00124645C13.1313 -0.00124645 13.2615 0.0246521 13.383 0.0749702C13.5045 0.125288 13.6149 0.199041 13.7078 0.292017C13.8008 0.384993 13.8746 0.495371 13.9249 0.61685C13.9752 0.738329 14.0011 0.868529 14.0011 1.00002C14.0011 1.1315 13.9752 1.26171 13.9249 1.38318C13.8746 1.50466 13.8008 1.61504 13.7078 1.70802L8.41383 7.00002L13.7078 12.292C13.8008 12.385 13.8746 12.4954 13.9249 12.6168C13.9752 12.7383 14.0011 12.8685 14.0011 13C14.0011 13.1315 13.9752 13.2617 13.9249 13.3832C13.8746 13.5047 13.8008 13.615 13.7078 13.708C13.6149 13.801 13.5045 13.8747 13.383 13.9251C13.2615 13.9754 13.1313 14.0013 12.9998 14.0013C12.8683 14.0013 12.7381 13.9754 12.6167 13.9251C12.4952 13.8747 12.3848 13.801 12.2918 13.708L6.99983 8.41402L1.70783 13.708C1.61486 13.801 1.50448 13.8747 1.383 13.9251C1.26152 13.9754 1.13132 14.0013 0.999834 14.0013C0.868346 14.0013 0.738146 13.9754 0.616667 13.9251C0.495188 13.8747 0.38481 13.801 0.291834 13.708C0.198858 13.615 0.125105 13.5047 0.0747871 13.3832C0.024469 13.2617 -0.00142956 13.1315 -0.00142956 13C-0.00142956 12.8685 0.024469 12.7383 0.0747871 12.6168C0.125105 12.4954 0.198858 12.385 0.291834 12.292L5.58583 7.00002L0.291834 1.70802C0.198707 1.61513 0.124821 1.50477 0.0744085 1.38328C0.0239956 1.26179 -0.00195312 1.13155 -0.00195312 1.00002C-0.00195312 0.868483 0.0239956 0.73824 0.0744085 0.61675C0.124821 0.495259 0.198707 0.384908 0.291834 0.292017Z" fill="black"/>
</svg>
